<svg xmlns="http://www.w3.org/2000/svg" xmlns:xlink="http://www.w3.org/1999/xlink" viewBox="0 0 1906.54 1753"><defs><style>.a{fill:url(#a);}.b{fill:url(#b);}.c{fill:url(#c);}.d{fill:url(#d);}.e{fill:url(#e);}</style><linearGradient id="a" x1="1020.5" y1="588.37" x2="1881.34" y2="588.37" gradientTransform="matrix(1, 0, 0, -1, 0, 1244.23)" gradientUnits="userSpaceOnUse"><stop offset="0" stop-color="#f3a879"/><stop offset="0.06" stop-color="#f3ad79"/><stop offset="0.37" stop-color="#f3c379"/><stop offset="0.81" stop-color="#f1c579"/><stop offset="1" stop-color="#ebc979"/></linearGradient><linearGradient id="b" x1="874.53" y1="-230.18" x2="1824.44" y2="318.26" gradientTransform="matrix(1, 0, 0, -1, 0, 1244.23)" gradientUnits="userSpaceOnUse"><stop offset="0" stop-color="#95f385"/><stop offset="0.06" stop-color="#9ef184"/><stop offset="0.34" stop-color="#c3e77f"/><stop offset="0.59" stop-color="#dde17c"/><stop offset="0.82" stop-color="#eddc7a"/><stop offset="1" stop-color="#f3db79"/></linearGradient><linearGradient id="c" x1="325.29" y1="-275.95" x2="1197.99" y2="-275.95" gradientTransform="matrix(1, 0, 0, -1, 0, 1244.23)" gradientUnits="userSpaceOnUse"><stop offset="0" stop-color="#79aaf3"/><stop offset="0.15" stop-color="#7bafea"/><stop offset="0.39" stop-color="#7fbdd1"/><stop offset="0.69" stop-color="#87d4a9"/><stop offset="1" stop-color="#90f079"/></linearGradient><linearGradient id="d" x1="542.14" y1="402.52" x2="1570.8" y2="996.38" gradientTransform="matrix(1, 0, 0, -1, 0, 1244.23)" gradientUnits="userSpaceOnUse"><stop offset="0" stop-color="#f37979"/><stop offset="0.5" stop-color="#f3a879"/></linearGradient><linearGradient id="e" x1="8.12" y1="96.78" x2="782.53" y2="96.78" gradientTransform="matrix(1, 0, 0, -1, 0, 1244.23)" gradientUnits="userSpaceOnUse"><stop offset="0" stop-color="#b379f3"/><stop offset="1" stop-color="#7bb1e7"/></linearGradient></defs><path class="a" d="M1911.71,945.42h0q-2.74-38.89-8.77-76.89A905.32,905.32,0,0,0,1870.77,731q-10-31.34-22.17-61.58A915.89,915.89,0,0,0,1758.32,499c-2.24-3.33-4.42-6.41-6.41-9.93a923.76,923.76,0,0,0-371.63-312.7,196.26,196.26,0,0,1,22.55-6.4,471.91,471.91,0,0,0-349,300.07A326,326,0,0,1,1200,525.2c-1.92-6.4-3.52-12.81-4.93-19.22a436.89,436.89,0,0,1,147.37,161h0c2.69,5.06,5.26,10.18,7.75,15.31h12a556.42,556.42,0,0,1,478.06,271.3,546.94,546.94,0,0,1,45.94,96.95,267.74,267.74,0,0,1,10.76,32.93,1.88,1.88,0,0,1,0,.58,279,279,0,0,1,8.65,57.67c.64-4.87,1.35-9.81,2-14.74h0a936.14,936.14,0,0,0,7.11-115.34Q1914.09,978.16,1911.71,945.42Z" transform="translate(-8.12 -85)"/><path class="b" d="M1836.23,946.57a556.4,556.4,0,0,0-478.06-271.49h-12c3.72,7.62,7.18,15.31,10.45,23.19a436.17,436.17,0,0,1,10.7,300.59c-4.23,12.81-9.17,25.63-14.55,38.44q-8,16.08-16.79,31.59a609.51,609.51,0,0,1-58.88,85.48c-11,13.33-22.43,26.21-34.47,38.45a614.76,614.76,0,0,1-98.1,81.63,558.32,558.32,0,0,1-3.78,470.19c-.73,1.62-1.5,3.23-2.31,4.81h0a280.69,280.69,0,0,1-31.59,56.13c-7,11.08-14.61,21.91-22.42,32.42a1032.31,1032.31,0,0,0,167.1-59.59h0a1042,1042,0,0,0,349.27-260h0a1045.91,1045.91,0,0,0,72.54-92.66,1033.2,1033.2,0,0,0,175-444.05,281.12,281.12,0,0,1,33.77,61.52A545.47,545.47,0,0,0,1836.23,946.57Z" transform="translate(-8.12 -85)"/><path class="c" d="M1147.56,1272.33a604.45,604.45,0,0,1-324.15,101.89H810.59c-11.92,0-23.77,0-35.56-1a557.5,557.5,0,0,1-373.3,251,260.39,260.39,0,0,1-26.65,4h0c-16.34,2.06-33,3.4-49.79,4,3,3.21,6.09,6.41,9.16,9.55A1030.68,1030.68,0,0,0,618.5,1746.44a1046.84,1046.84,0,0,0,496.9-17.3q18.57-5.33,36.84-11.22c-2.44,8.27-5.26,16.41-8.4,24.29h.32a558,558,0,0,0,3.72-470.2Z" transform="translate(-8.12 -85)"/><path class="d" d="M1367.08,105.5h0a737,737,0,0,0-173-20.5c-23.07,0-45.94,1.09-68.43,3.2-6.41.58-12.82,1.22-19.23,2h-2.11q-17.49,2.11-34.73,5.06h0c-9.87,1.67-19.6,3.53-29.28,5.58h-.64a888.85,888.85,0,0,0-225.8,79.39h0A510.12,510.12,0,0,0,527.38,508.93h0a501.51,501.51,0,0,0-12.81,58.24,489.78,489.78,0,0,0-5.32,50.69c-.58,9.55-.83,19.22-.83,29a506.49,506.49,0,0,0,8.52,93.1,488.53,488.53,0,0,0,17.3,67.35,510,510,0,0,0,206.19,266.62h0a421.4,421.4,0,0,0,87.21,31.27c12.81,3,26.14,5.51,39.53,7.37a422.17,422.17,0,0,0,58.69,4c7.24,0,14.42,0,21.6-.58C770.7,1075.87,659.92,900.06,700,723.3a328.19,328.19,0,0,1,320.28-255.57,334.83,334.83,0,0,1,39.53,2.37,471.81,471.81,0,0,1,349.59-299.56h0a279.84,279.84,0,0,1,36.91-6.41q13.71-1.53,27.87-1.73h0c9.49-.57,19.23-.89,28.58-.89,6.41,0,12.3,0,18.39.38A728.29,728.29,0,0,0,1367.08,105.5Z" transform="translate(-8.12 -85)"/><path class="e" d="M772.34,1373.13h0c-21.85-2.82-43.51-6.41-64.78-10.9-24.22-4.93-48.12-11-71.57-17.87s-46.65-14.93-69.39-23.78H566q-18.27-7.11-36.14-15.12h0a879,879,0,0,1-276.36-193.64c-6.85-7.11-13.64-14.35-20.24-21.72a876,876,0,0,1-210-420.47,883.29,883.29,0,0,0,75.29,552c6.41,13.33,13.59,26.53,20.83,39.54h0c5.12,9.09,10.31,18.06,15.69,27A883.86,883.86,0,0,0,468.63,1606a281.91,281.91,0,0,1-59.4,19.23,557.5,557.5,0,0,0,373.3-251Z" transform="translate(-8.12 -85)"/></svg>