<svg id="Слой_1" data-name="Слой 1" xmlns="http://www.w3.org/2000/svg" viewBox="0 0 1481.76 1367.61"><defs><style>.cls-1{fill:#fff;stroke:#fff;stroke-miterlimit:10;stroke-width:5px;}</style></defs><path class="cls-1" d="M487.26,1479.62a223.29,223.29,0,0,0,22.81-1.17q-19,2.4-38.43,3.12c-.85-.9-1.7-1.8-2.55-2.72C475.09,1479.37,481.13,1479.62,487.26,1479.62Z" transform="translate(-218.74 -276.98)"/><path class="cls-1" d="M1055.11,1640a215.46,215.46,0,0,0,22.37-26.31c-5.47,8.54-11.27,16.89-17.32,25C1058.49,1639.1,1056.81,1639.55,1055.11,1640Z" transform="translate(-218.74 -276.98)"/><path class="cls-1" d="M1103.43,1566.45a.72.72,0,0,1,.22.1c-.57,1.25-1.17,2.5-1.8,3.74C1102.4,1569,1102.93,1567.75,1103.43,1566.45Z" transform="translate(-218.74 -276.98)"/><path class="cls-1" d="M1397.74,342.86c-2.85-.55-5.75-1.05-8.65-1.48l0,0a218.77,218.77,0,0,0-32.89-2.45c-1.08,0-2.1,0-3.18,0q10.95-.68,22.07-.68c4.75,0,9.5.1,14.2.28h.12C1392.24,340,1394.94,341.41,1397.74,342.86Z" transform="translate(-218.74 -276.98)"/><path class="cls-1" d="M1696.18,944.15v0q-2.15-30.07-6.78-59.41a698,698,0,0,0-25.07-106q-7.71-24.15-17.09-47.51a707.3,707.3,0,0,0-69.68-131.56c-1.72-2.58-3.45-5.1-5.22-7.65A712.5,712.5,0,0,0,1285.42,350.6c5.7-2,11.5-3.64,17.4-5.12C1178,370.62,1076.36,459.72,1033.47,577.09a251.39,251.39,0,0,1,112.77,42.56c-1.45-4.82-2.7-9.75-3.78-14.72a337.11,337.11,0,0,1,113.77,124.29.07.07,0,0,1,0,.07c2.07,3.9,4,7.85,5.94,11.82,3.08-.07,6.15-.1,9.25-.1,156.8,0,294,84,369,209.39a425.49,425.49,0,0,1,35.46,74.81,206.68,206.68,0,0,1,8.27,25.46,3.52,3.52,0,0,1,.13.43,217,217,0,0,1,6.65,44.46c.52-3.77,1-7.6,1.52-11.4,0,0,0-.05,0-.05a718.45,718.45,0,0,0,5.5-88.87Q1698,969.49,1696.18,944.15Z" transform="translate(-218.74 -276.98)"/><path class="cls-1" d="M1640.47,950.4C1565.44,825,1428.25,741,1271.45,741c-3.1,0-6.17,0-9.25.1q4.27,8.82,8,17.92a337.15,337.15,0,0,1,8.29,232q-4.95,15.11-11.27,29.54c-4.07,8.25-8.4,16.4-12.94,24.37a469.93,469.93,0,0,1-45.44,66q-12.67,15.45-26.62,29.72a470.59,470.59,0,0,1-75.73,63,430.67,430.67,0,0,1-2.87,362.9c-.57,1.25-1.17,2.5-1.8,3.74v0a216.43,216.43,0,0,1-24.37,43.34c-5.47,8.54-11.27,16.89-17.32,25a797.07,797.07,0,0,0,129-46h0A804.07,804.07,0,0,0,1458.75,1392s0,0,0,0,0,0,0,0h0a809.34,809.34,0,0,0,56-71.53,797.13,797.13,0,0,0,135.06-342.73,217.87,217.87,0,0,1,26.07,47.52A425.49,425.49,0,0,0,1640.47,950.4Z" transform="translate(-218.74 -276.98)"/><path class="cls-1" d="M1106.52,1203.65a466.64,466.64,0,0,1-250.2,78.6c-3.3.08-6.62.1-9.94.1-9.2,0-18.35-.25-27.45-.8-63.35,100.18-167,172.33-288.11,193.72q-10.12,2.07-20.57,3.15a.38.38,0,0,0-.18,0q-19,2.4-38.43,3.12c2.32,2.48,4.67,4.92,7,7.37a795.64,795.64,0,0,0,219.26,80.73,807.64,807.64,0,0,0,383.49-13.35q14.35-4,28.47-8.62-2.82,9.55-6.47,18.75a.72.72,0,0,1,.22.1,430.67,430.67,0,0,0,2.87-362.9Z" transform="translate(-218.74 -276.98)"/><path class="cls-1" d="M1270.38,295.3a0,0,0,0,0,0,0,569.12,569.12,0,0,0-133.51-15.79q-26.73,0-52.83,2.44c-4.9.45-9.78.95-14.65,1.53-.55.05-1.07.12-1.62.2q-13.5,1.65-26.8,3.9h0c-7.59,1.3-15.12,2.72-22.61,4.35-.18,0-.33.07-.48.1a683.84,683.84,0,0,0-174.27,61.25s0,0,0,0A393.79,393.79,0,0,0,622.37,607l0,0a391.5,391.5,0,0,0-13.94,84q-.64,11.1-.63,22.35a394.37,394.37,0,0,0,6.57,71.9,383.14,383.14,0,0,0,13.38,52,393.7,393.7,0,0,0,159.15,205.79s0,0,.07,0a326,326,0,0,0,67.33,24.09q15,3.52,30.49,5.73a330,330,0,0,0,45.29,3.1q8.4,0,16.67-.43A253.33,253.33,0,0,1,1003,575.26a255.76,255.76,0,0,1,30.49,1.83c42.89-117.37,144.56-206.47,269.35-231.61a.77.77,0,0,1,.17-.05,218.87,218.87,0,0,1,28.52-5.15c7.07-.77,14.22-1.25,21.47-1.32h0q10.95-.68,22.07-.68c4.75,0,9.5.1,14.2.28A561.89,561.89,0,0,0,1270.38,295.3Z" transform="translate(-218.74 -276.98)"/><path class="cls-1" d="M811.34,1281.05h-.05q-25.31-3.25-50-8.39-28-5.78-55.21-13.82t-53.56-18.35l-.2-.1h0a2.14,2.14,0,0,1-.22-.1.77.77,0,0,1-.25-.1q-14.1-5.51-27.92-11.64v0A679.07,679.07,0,0,1,410.6,1079.09q-7.94-8.25-15.64-16.77A678.31,678.31,0,0,1,285.39,898a671.45,671.45,0,0,1-52.46-160.18,681.17,681.17,0,0,0,58.11,426q7.65,15.5,16,30.55s0,0,0,.05q5.88,10.53,12.12,20.81a681.9,681.9,0,0,0,257.45,245.33,216,216,0,0,1-45.86,14.72c121.14-21.39,224.76-93.54,288.11-193.72C816.38,1281.4,813.86,1281.25,811.34,1281.05Z" transform="translate(-218.74 -276.98)"/><text x="-218.74" y="-276.98"/></svg>