<svg width="26" height="24" viewBox="0 0 26 24" fill="none" xmlns="http://www.w3.org/2000/svg">
<g clip-path="url(#clip0_2_8)">
<path d="M4.80155 20.9655C4.93396 20.9654 5.06627 20.9587 5.198 20.9453C4.97927 20.9727 4.75561 20.9912 4.53087 21L4.48657 20.9524C4.59156 20.9612 4.69656 20.9655 4.80155 20.9655Z" fill="#F75656"/>
<path d="M14.6573 23.7485C14.7987 23.6068 14.9285 23.4541 15.0456 23.2919C14.9505 23.4402 14.8502 23.585 14.7448 23.7261L14.6573 23.7485Z" fill="#F75656"/>
<path d="M15.4956 22.4722H15.4994C15.4896 22.4935 15.4792 22.5154 15.4683 22.5372C15.4781 22.517 15.4869 22.4951 15.4956 22.4722Z" fill="#F75656"/>
<path d="M20.6033 1.23701C20.5536 1.22716 20.5033 1.21896 20.453 1.2113C20.264 1.18314 20.0732 1.16906 19.8821 1.1692H19.8274C19.9543 1.16154 20.0819 1.15771 20.2102 1.15771C20.2927 1.15771 20.3742 1.15771 20.4568 1.16209C20.5077 1.1867 20.5569 1.21185 20.6033 1.23701Z" fill="#F75656"/>
<path d="M25.665 10.6414C25.7186 10.9812 25.7578 11.325 25.7826 11.6727C25.7744 11.7389 25.6994 14.2385 25.6901 14.3041C25.6787 14.0436 25.6401 13.785 25.5748 13.5325C25.5753 13.53 25.5753 13.5274 25.5748 13.5249C25.5368 13.3746 25.489 13.227 25.4315 13.083C24.9101 11.6392 23.9564 10.3911 22.7004 9.50851C21.4444 8.62595 19.9469 8.1518 18.4118 8.15058H18.251C18.2182 8.08114 18.1838 8.01278 18.1477 7.94497C17.6823 7.06933 17.0023 6.32613 16.1714 5.78498C16.19 5.87138 16.2119 5.95669 16.237 6.0409C15.6542 5.63964 14.9825 5.3861 14.2799 5.30213C14.6511 4.28879 15.2755 3.38736 16.0938 2.68371C16.912 1.98006 17.8968 1.49762 18.9542 1.28235C18.8518 1.30787 18.7512 1.33758 18.6524 1.37148C20.6566 2.29785 22.376 3.74424 23.6319 5.56023L23.7226 5.69256C24.2051 6.40899 24.6103 7.17444 24.9317 7.97614C25.0411 8.24701 25.1397 8.52207 25.2275 8.80132C25.4211 9.40233 25.5674 10.0176 25.665 10.6414Z" fill="#F75656"/>
<path d="M24.816 11.781C24.1546 10.6726 23.2167 9.75495 22.0941 9.11789C20.9715 8.48083 19.7028 8.14619 18.412 8.14673C18.3573 8.14673 18.3026 8.14673 18.2512 8.14673C18.301 8.24844 18.3475 8.35234 18.3907 8.45733C18.9142 9.74097 18.965 11.1688 18.534 12.4864C18.4771 12.661 18.4118 12.8318 18.3382 12.9988C18.2675 13.1421 18.1927 13.283 18.114 13.4215C17.8843 13.826 17.6205 14.2102 17.3255 14.5698C17.1796 14.7485 17.0256 14.9204 16.8634 15.0855C16.4655 15.4952 16.0256 15.8617 15.551 16.1792C16.0014 17.1694 16.2303 18.246 16.2217 19.3339C16.2131 20.4217 15.9672 21.4946 15.5012 22.4776C15.4914 22.4989 15.481 22.5208 15.47 22.5427C15.3584 22.8088 15.2166 23.0613 15.0473 23.2951C14.9522 23.4435 14.8519 23.5882 14.7466 23.7293C15.5139 23.5271 16.2624 23.2591 16.9837 22.9282C18.7708 22.1098 20.365 20.9231 21.6618 19.446C22.0094 19.05 22.3343 18.6349 22.6352 18.2025C23.8702 16.43 24.673 14.393 24.9795 12.2545C25.164 12.5095 25.3159 12.7866 25.4317 13.0792C25.2691 12.6275 25.0629 12.1927 24.816 11.781Z" fill="#F75656"/>
<path d="M15.5489 16.1759C14.2621 17.0374 12.7553 17.5118 11.2071 17.543C11.1496 17.543 11.0917 17.543 11.0343 17.543C10.8746 17.543 10.7158 17.5384 10.558 17.5293C10.0041 18.4066 9.27331 19.1587 8.41234 19.7375C7.55137 20.3164 6.57912 20.7094 5.55771 20.8913C5.44069 20.9148 5.32203 20.9334 5.20063 20.9459H5.1979C4.97916 20.9733 4.75551 20.9919 4.53076 21.0006C4.57068 21.0433 4.61169 21.0859 4.65271 21.1286C5.84546 21.78 7.12771 22.2521 8.45812 22.5296C10.663 22.9882 12.946 22.9087 15.1136 22.2977C15.2777 22.2507 15.4417 22.2009 15.6058 22.1484C15.5735 22.2578 15.5358 22.3672 15.4937 22.4733H15.4975C15.9635 21.4902 16.2094 20.4174 16.218 19.3295C16.2266 18.2417 15.9977 17.1651 15.5473 16.1748L15.5489 16.1759Z" fill="#F75656"/>
<path d="M18.3929 0.41124C17.6342 0.228781 16.8564 0.137 16.076 0.137823C15.7665 0.137823 15.4608 0.15204 15.159 0.180476C15.0737 0.188132 14.9894 0.196881 14.9047 0.206724L14.8762 0.210552C14.7204 0.229691 14.5651 0.252111 14.4114 0.278359C14.2796 0.300779 14.1495 0.325387 14.0194 0.353822C14.0166 0.353461 14.0139 0.353461 14.0112 0.353822C12.9596 0.569617 11.9423 0.927427 10.9872 1.41741C10.0621 1.82226 9.23822 2.42704 8.57475 3.18827C7.91129 3.9495 7.42472 4.84828 7.15004 5.81998C7.01665 6.29608 6.93542 6.78527 6.90779 7.27893C6.9005 7.40762 6.89685 7.53685 6.89685 7.66663C6.89672 8.08521 6.93498 8.50292 7.01114 8.91451C7.06744 9.22009 7.14491 9.5214 7.243 9.81624C7.73152 11.2854 8.70464 12.5451 10.0029 13.3887C10.3758 13.5706 10.7677 13.7107 11.1714 13.8065C11.3448 13.8475 11.5214 13.8809 11.7002 13.906C11.9608 13.9422 12.2235 13.9605 12.4866 13.9607C12.5834 13.9607 12.6796 13.9607 12.7759 13.9536C11.722 13.7134 10.7936 13.0935 10.1679 12.2122C9.54217 11.3308 9.26303 10.2499 9.38377 9.17582C9.50451 8.10173 10.0167 7.10976 10.8224 6.38936C11.6282 5.66896 12.6711 5.27061 13.752 5.27041C13.9289 5.27044 14.1056 5.28103 14.2813 5.30212C14.6525 4.28879 15.2769 3.38736 16.0951 2.68371C16.9134 1.98006 17.8981 1.49762 18.9556 1.28235H18.9589C19.1217 1.24144 19.287 1.21148 19.4538 1.19267C19.5763 1.17954 19.7004 1.17134 19.8262 1.1697C19.953 1.16204 20.0806 1.15822 20.209 1.15822C20.2915 1.15822 20.373 1.15822 20.4556 1.16259C19.7984 0.835538 19.1065 0.583501 18.3929 0.41124Z" fill="#F75656"/>
<path d="M10.4263 17.5195C10.1347 17.4831 9.8454 17.4344 9.55849 17.3735C9.23404 17.3068 8.91469 17.227 8.60044 17.134C8.28619 17.041 7.97632 16.9348 7.67082 16.8152H7.66754H7.66371C7.66371 16.8152 7.66043 16.8152 7.65934 16.8152C7.49638 16.7514 7.33488 16.684 7.17484 16.6129C5.78432 15.994 4.52678 15.1118 3.47168 14.0149C3.37982 13.9193 3.28868 13.8224 3.19827 13.7239C2.42869 12.8711 1.78812 11.9101 1.29692 10.8717C0.8778 9.9869 0.571895 9.05284 0.386446 8.09155C-0.0837752 10.6004 0.270545 13.194 1.39645 15.4847C1.48504 15.6641 1.57781 15.8407 1.67479 16.0146C1.74314 16.1366 1.81314 16.2563 1.88532 16.3761C2.97208 18.1654 4.51386 19.6345 6.3535 20.6337C6.09839 20.7481 5.83135 20.8338 5.55731 20.8891C6.57872 20.7072 7.55096 20.3143 8.41193 19.7354C9.2729 19.1565 10.0037 18.4044 10.5576 17.5272L10.4263 17.5195Z" fill="#F75656"/>
</g>
<defs>
<clipPath id="clip0_2_8">
<rect width="25.903" height="24" fill="white" transform="translate(0.048584)"/>
</clipPath>
</defs>
</svg>
